<svg width="19" height="124" viewBox="0 0 19 124" fill="none" xmlns="http://www.w3.org/2000/svg">
<rect width="4" height="4" transform="translate(2.75 8.32996)" fill="url(#paint0_linear_34_15)"/>
<rect width="4" height="4" transform="translate(12.25 8.32996)" fill="url(#paint1_linear_34_15)"/>
<rect width="4" height="4" transform="translate(2.75 28.98)" fill="url(#paint2_linear_34_15)"/>
<rect width="4" height="4" transform="translate(12.25 28.98)" fill="url(#paint3_linear_34_15)"/>
<rect width="4" height="4" transform="translate(2.75 49.64)" fill="url(#paint4_linear_34_15)"/>
<rect width="4" height="4" transform="translate(12.25 49.64)" fill="url(#paint5_linear_34_15)"/>
<rect width="4" height="4" transform="translate(2.75 70.3)" fill="url(#paint6_linear_34_15)"/>
<rect width="4" height="4" transform="translate(12.25 70.3)" fill="url(#paint7_linear_34_15)"/>
<rect width="4" height="4" transform="translate(2.75 90.95)" fill="url(#paint8_linear_34_15)"/>
<rect width="4" height="4" transform="translate(12.25 90.95)" fill="url(#paint9_linear_34_15)"/>
<rect width="4" height="4" transform="translate(2.75 111.61)" fill="url(#paint10_linear_34_15)"/>
<rect width="4" height="4" transform="translate(12.25 111.61)" fill="url(#paint11_linear_34_15)"/>
<defs>
<linearGradient id="paint0_linear_34_15" x1="4" y1="4" x2="0" y2="0" gradientUnits="userSpaceOnUse">
<stop stop-color="#15A8FE"/>
<stop offset="1" stop-color="#0657A9"/>
</linearGradient>
<linearGradient id="paint1_linear_34_15" x1="4" y1="4" x2="0" y2="0" gradientUnits="userSpaceOnUse">
<stop stop-color="#15A8FE"/>
<stop offset="1" stop-color="#0657A9"/>
</linearGradient>
<linearGradient id="paint2_linear_34_15" x1="4" y1="4" x2="0" y2="0" gradientUnits="userSpaceOnUse">
<stop stop-color="#15A8FE"/>
<stop offset="1" stop-color="#0657A9"/>
</linearGradient>
<linearGradient id="paint3_linear_34_15" x1="4" y1="4" x2="0" y2="0" gradientUnits="userSpaceOnUse">
<stop stop-color="#15A8FE"/>
<stop offset="1" stop-color="#0657A9"/>
</linearGradient>
<linearGradient id="paint4_linear_34_15" x1="4" y1="4" x2="0" y2="0" gradientUnits="userSpaceOnUse">
<stop stop-color="#15A8FE"/>
<stop offset="1" stop-color="#0657A9"/>
</linearGradient>
<linearGradient id="paint5_linear_34_15" x1="4" y1="4" x2="0" y2="0" gradientUnits="userSpaceOnUse">
<stop stop-color="#15A8FE"/>
<stop offset="1" stop-color="#0657A9"/>
</linearGradient>
<linearGradient id="paint6_linear_34_15" x1="4" y1="4" x2="0" y2="0" gradientUnits="userSpaceOnUse">
<stop stop-color="#15A8FE"/>
<stop offset="1" stop-color="#0657A9"/>
</linearGradient>
<linearGradient id="paint7_linear_34_15" x1="4" y1="4" x2="0" y2="0" gradientUnits="userSpaceOnUse">
<stop stop-color="#15A8FE"/>
<stop offset="1" stop-color="#0657A9"/>
</linearGradient>
<linearGradient id="paint8_linear_34_15" x1="4" y1="4" x2="0" y2="0" gradientUnits="userSpaceOnUse">
<stop stop-color="#15A8FE"/>
<stop offset="1" stop-color="#0657A9"/>
</linearGradient>
<linearGradient id="paint9_linear_34_15" x1="4" y1="4" x2="0" y2="0" gradientUnits="userSpaceOnUse">
<stop stop-color="#15A8FE"/>
<stop offset="1" stop-color="#0657A9"/>
</linearGradient>
<linearGradient id="paint10_linear_34_15" x1="4" y1="4" x2="0" y2="0" gradientUnits="userSpaceOnUse">
<stop stop-color="#15A8FE"/>
<stop offset="1" stop-color="#0657A9"/>
</linearGradient>
<linearGradient id="paint11_linear_34_15" x1="4" y1="4" x2="0" y2="0" gradientUnits="userSpaceOnUse">
<stop stop-color="#15A8FE"/>
<stop offset="1" stop-color="#0657A9"/>
</linearGradient>
</defs>
</svg>
