<svg width="96" height="39" viewBox="0 0 96 39" fill="none" xmlns="http://www.w3.org/2000/svg">
<rect width="4" height="4" transform="translate(7.91003 4.72)" fill="url(#paint0_linear_5_532)"/>
<rect width="4" height="4" transform="translate(26.91 4.72)" fill="url(#paint1_linear_5_532)"/>
<rect width="4" height="4" transform="translate(45.91 4.72)" fill="url(#paint2_linear_5_532)"/>
<rect width="4" height="4" transform="translate(64.91 4.72)" fill="url(#paint3_linear_5_532)"/>
<rect width="4" height="4" transform="translate(83.91 4.72)" fill="url(#paint4_linear_5_532)"/>
<rect width="4" height="4" transform="translate(7.91003 17.38)" fill="url(#paint5_linear_5_532)"/>
<rect width="4" height="4" transform="translate(26.91 17.38)" fill="url(#paint6_linear_5_532)"/>
<rect width="4" height="4" transform="translate(45.91 17.38)" fill="url(#paint7_linear_5_532)"/>
<rect width="4" height="4" transform="translate(64.91 17.38)" fill="url(#paint8_linear_5_532)"/>
<rect width="4" height="4" transform="translate(83.91 17.38)" fill="url(#paint9_linear_5_532)"/>
<rect width="4" height="4" transform="translate(7.91003 30.03)" fill="url(#paint10_linear_5_532)"/>
<rect width="4" height="4" transform="translate(26.91 30.03)" fill="url(#paint11_linear_5_532)"/>
<rect width="4" height="4" transform="translate(45.91 30.03)" fill="url(#paint12_linear_5_532)"/>
<rect width="4" height="4" transform="translate(64.91 30.03)" fill="url(#paint13_linear_5_532)"/>
<rect width="4" height="4" transform="translate(83.91 30.03)" fill="url(#paint14_linear_5_532)"/>
<defs>
<linearGradient id="paint0_linear_5_532" x1="4" y1="4" x2="0" y2="0" gradientUnits="userSpaceOnUse">
<stop stop-color="#0657A9"/>
<stop offset="1" stop-color="#15A8FE"/>
</linearGradient>
<linearGradient id="paint1_linear_5_532" x1="4" y1="4" x2="0" y2="0" gradientUnits="userSpaceOnUse">
<stop stop-color="#0657A9"/>
<stop offset="1" stop-color="#15A8FE"/>
</linearGradient>
<linearGradient id="paint2_linear_5_532" x1="4" y1="4" x2="0" y2="0" gradientUnits="userSpaceOnUse">
<stop stop-color="#0657A9"/>
<stop offset="1" stop-color="#15A8FE"/>
</linearGradient>
<linearGradient id="paint3_linear_5_532" x1="4" y1="4" x2="0" y2="0" gradientUnits="userSpaceOnUse">
<stop stop-color="#0657A9"/>
<stop offset="1" stop-color="#15A8FE"/>
</linearGradient>
<linearGradient id="paint4_linear_5_532" x1="4" y1="4" x2="0" y2="0" gradientUnits="userSpaceOnUse">
<stop stop-color="#0657A9"/>
<stop offset="1" stop-color="#15A8FE"/>
</linearGradient>
<linearGradient id="paint5_linear_5_532" x1="4" y1="4" x2="0" y2="0" gradientUnits="userSpaceOnUse">
<stop stop-color="#0657A9"/>
<stop offset="1" stop-color="#15A8FE"/>
</linearGradient>
<linearGradient id="paint6_linear_5_532" x1="4" y1="4" x2="0" y2="0" gradientUnits="userSpaceOnUse">
<stop stop-color="#0657A9"/>
<stop offset="1" stop-color="#15A8FE"/>
</linearGradient>
<linearGradient id="paint7_linear_5_532" x1="4" y1="4" x2="0" y2="0" gradientUnits="userSpaceOnUse">
<stop stop-color="#0657A9"/>
<stop offset="1" stop-color="#15A8FE"/>
</linearGradient>
<linearGradient id="paint8_linear_5_532" x1="4" y1="4" x2="0" y2="0" gradientUnits="userSpaceOnUse">
<stop stop-color="#0657A9"/>
<stop offset="1" stop-color="#15A8FE"/>
</linearGradient>
<linearGradient id="paint9_linear_5_532" x1="4" y1="4" x2="0" y2="0" gradientUnits="userSpaceOnUse">
<stop stop-color="#0657A9"/>
<stop offset="1" stop-color="#15A8FE"/>
</linearGradient>
<linearGradient id="paint10_linear_5_532" x1="4" y1="4" x2="0" y2="0" gradientUnits="userSpaceOnUse">
<stop stop-color="#0657A9"/>
<stop offset="1" stop-color="#15A8FE"/>
</linearGradient>
<linearGradient id="paint11_linear_5_532" x1="4" y1="4" x2="0" y2="0" gradientUnits="userSpaceOnUse">
<stop stop-color="#0657A9"/>
<stop offset="1" stop-color="#15A8FE"/>
</linearGradient>
<linearGradient id="paint12_linear_5_532" x1="4" y1="4" x2="0" y2="0" gradientUnits="userSpaceOnUse">
<stop stop-color="#0657A9"/>
<stop offset="1" stop-color="#15A8FE"/>
</linearGradient>
<linearGradient id="paint13_linear_5_532" x1="4" y1="4" x2="0" y2="0" gradientUnits="userSpaceOnUse">
<stop stop-color="#0657A9"/>
<stop offset="1" stop-color="#15A8FE"/>
</linearGradient>
<linearGradient id="paint14_linear_5_532" x1="4" y1="4" x2="0" y2="0" gradientUnits="userSpaceOnUse">
<stop stop-color="#0657A9"/>
<stop offset="1" stop-color="#15A8FE"/>
</linearGradient>
</defs>
</svg>
