<svg width="160" height="121" viewBox="0 0 160 121" fill="none" xmlns="http://www.w3.org/2000/svg">
<g filter="url(#filter0_d_22_22)">
<path d="M151.543 113.298C151.815 113.298 152.064 113.124 152.146 112.851C152.161 112.805 152.493 111.707 152.943 109.766C153.023 109.427 152.81 109.089 152.471 109.011C152.135 108.931 151.793 109.142 151.716 109.483C151.275 111.379 150.943 112.477 150.941 112.488C150.839 112.822 151.027 113.173 151.362 113.272C151.422 113.289 151.482 113.298 151.543 113.298Z" fill="#21111D"/>
<path d="M153.459 103.954C153.114 103.898 152.88 103.577 152.935 103.234C153.27 101.139 153.539 99.0113 153.732 96.9129C153.764 96.5663 154.071 96.3131 154.418 96.3445C154.764 96.3759 155.019 96.6825 154.987 97.029C154.788 99.1541 154.517 101.309 154.178 103.432C154.129 103.741 153.861 103.961 153.558 103.961C153.527 103.964 153.492 103.961 153.459 103.954ZM154.718 91.201C154.369 91.1937 154.096 90.906 154.103 90.5577C154.118 89.9121 154.125 89.2616 154.125 88.6281C154.125 87.1362 154.084 85.6466 154.004 84.1958C153.985 83.85 154.251 83.5526 154.597 83.5333C154.953 83.5139 155.241 83.7799 155.26 84.1257C155.343 85.5983 155.384 87.112 155.384 88.6257C155.384 89.269 155.377 89.9291 155.362 90.5844C155.356 90.9277 155.074 91.1986 154.733 91.1986C154.728 91.201 154.723 91.201 154.718 91.201ZM153.381 77.8701C153.073 75.7349 152.664 73.6409 152.168 71.6435C152.083 71.3074 152.289 70.964 152.628 70.8818C152.965 70.7972 153.309 71.0027 153.391 71.3412C153.9 73.3773 154.316 75.5149 154.631 77.6936C154.68 78.0369 154.442 78.3561 154.098 78.4069C154.067 78.4118 154.038 78.4141 154.008 78.4141C153.696 78.4093 153.428 78.1844 153.381 77.8701ZM96.6285 71.6314C94.3107 71.1865 92.3053 70.1733 90.668 68.6185C90.4161 68.3791 90.4064 67.9801 90.6438 67.7287C90.8835 67.4771 91.2832 67.4675 91.5351 67.7069C92.9956 69.0925 94.7903 69.9967 96.8684 70.3958C97.2102 70.4611 97.433 70.7899 97.3673 71.1333C97.3092 71.4332 97.0455 71.6435 96.7494 71.6435C96.7113 71.6435 96.6694 71.6411 96.6285 71.6314ZM102.51 70.9858C102.393 70.6593 102.563 70.299 102.889 70.1806C104.582 69.576 106.029 68.1857 107.067 66.1617C107.227 65.8522 107.605 65.7313 107.916 65.8885C108.225 66.048 108.346 66.4252 108.189 66.7348C107 69.0489 105.313 70.6497 103.313 71.363C103.243 71.3872 103.17 71.3993 103.1 71.3993C102.844 71.4017 102.601 71.2421 102.51 70.9858ZM150.289 65.5959C149.533 63.5937 148.659 61.652 147.685 59.8311C147.52 59.5241 147.636 59.1444 147.944 58.98C148.251 58.8155 148.634 58.9316 148.797 59.2387C149.796 61.1104 150.695 63.1004 151.468 65.1533C151.591 65.4798 151.426 65.8426 151.1 65.9634C151.027 65.99 150.952 66.0045 150.877 66.0045C150.625 66.0021 150.383 65.8473 150.289 65.5959ZM87.173 62.9577C86.5239 61.0209 86.1946 58.8881 86.1946 56.6175V56.4434C86.1969 56.0977 86.4779 55.8172 86.8243 55.8172H86.8267C87.1754 55.8196 87.454 56.1024 87.454 56.4507V56.6199C87.454 58.7551 87.7616 60.7525 88.367 62.5612C88.4784 62.89 88.2993 63.2479 87.9698 63.3567C87.9044 63.3785 87.8366 63.3905 87.7688 63.3905C87.5072 63.3882 87.2626 63.2213 87.173 62.9577ZM109.29 60.9338C108.945 60.8951 108.697 60.5832 108.736 60.2374C108.843 59.3064 108.896 58.3271 108.896 57.3261C108.896 56.2403 108.833 55.1135 108.71 53.977C108.671 53.6312 108.923 53.3216 109.267 53.283C109.61 53.2491 109.923 53.4933 109.962 53.8391C110.09 55.0216 110.158 56.1944 110.158 57.3236C110.158 58.3706 110.103 59.3983 109.991 60.3752C109.955 60.6969 109.681 60.9338 109.366 60.9338C109.339 60.9386 109.315 60.9386 109.29 60.9338ZM144.323 54.4775C143.08 52.78 141.703 51.1623 140.227 49.6704C139.983 49.4238 139.985 49.0247 140.234 48.7805C140.482 48.5363 140.881 48.5387 141.126 48.7878C142.644 50.3257 144.064 51.9893 145.342 53.7376C145.548 54.0181 145.488 54.4123 145.207 54.6177C145.096 54.7 144.964 54.7387 144.836 54.7387C144.638 54.7338 144.447 54.6468 144.323 54.4775ZM87.563 50.7222C87.2287 50.6304 87.0326 50.2822 87.1246 49.9485C87.7229 47.8061 88.5826 45.7749 89.687 43.9081C89.8638 43.6083 90.2514 43.5091 90.5493 43.6856C90.8496 43.8621 90.9489 44.249 90.7721 44.5465C89.7258 46.3165 88.9072 48.2485 88.338 50.2846C88.2605 50.5627 88.0062 50.744 87.7325 50.744C87.6768 50.744 87.6211 50.7367 87.563 50.7222ZM107.475 47.8036C106.905 45.8208 106.167 43.8283 105.28 41.8817C105.135 41.565 105.275 41.1925 105.592 41.0475C105.91 40.9048 106.283 41.0427 106.426 41.3594C107.339 43.364 108.096 45.4145 108.686 47.4554C108.782 47.7891 108.589 48.1373 108.255 48.234C108.196 48.251 108.138 48.2582 108.08 48.2582C107.806 48.2582 107.555 48.0793 107.475 47.8036ZM135.487 45.4702C133.821 44.1668 132.065 42.9578 130.268 41.8745C129.97 41.6955 129.873 41.3087 130.055 41.0112C130.234 40.7138 130.621 40.6171 130.919 40.7984C132.761 41.9083 134.56 43.1464 136.265 44.4812C136.538 44.6963 136.587 45.0905 136.372 45.3637C136.248 45.5209 136.061 45.6056 135.875 45.6056C135.74 45.6031 135.603 45.5596 135.487 45.4702ZM93.8771 39.7659C93.6568 39.4975 93.6931 39.101 93.9619 38.8808C95.6307 37.5074 97.5587 36.4072 99.6952 35.614C100.02 35.4931 100.385 35.6576 100.504 35.984C100.624 36.3105 100.461 36.6707 100.133 36.794C98.1299 37.5389 96.3238 38.5665 94.7636 39.8529C94.645 39.9497 94.5044 39.998 94.364 39.998C94.1824 39.9932 94.0031 39.9159 93.8771 39.7659ZM124.644 38.9486C122.677 38.0805 120.677 37.3575 118.693 36.794C118.359 36.6998 118.165 36.3516 118.259 36.0179C118.354 35.6842 118.703 35.4907 119.037 35.5851C121.076 36.163 123.133 36.9077 125.152 37.8C125.47 37.9403 125.615 38.3126 125.475 38.6294C125.37 38.864 125.141 39.0042 124.898 39.0042C124.813 39.0042 124.729 38.9849 124.644 38.9486ZM102.272 36.3177C101.16 34.5549 99.9132 32.8284 98.5612 31.1866C98.3413 30.9181 98.3794 30.5215 98.6488 30.3015C98.9173 30.0815 99.3143 30.1201 99.5352 30.3885C100.921 32.0715 102.199 33.8416 103.338 35.6479C103.525 35.9429 103.434 36.3298 103.139 36.516C103.035 36.5812 102.919 36.6127 102.805 36.6127C102.596 36.6127 102.393 36.5087 102.272 36.3177ZM112.505 35.556C110.34 35.3093 108.213 35.2755 106.222 35.4544C105.869 35.4883 105.569 35.2295 105.539 34.8837C105.508 34.5379 105.765 34.2309 106.11 34.2018C108.186 34.0157 110.398 34.0495 112.647 34.3058C112.994 34.3446 113.242 34.6565 113.203 35.0023C113.166 35.3239 112.892 35.5609 112.578 35.5609C112.553 35.5584 112.529 35.5584 112.505 35.556ZM94.2453 26.5607C92.7413 25.1655 91.0749 23.8452 89.2947 22.6386C89.0065 22.4427 88.9314 22.0534 89.1276 21.7657C89.3238 21.4779 89.7137 21.4029 90.0019 21.5988C91.8354 22.8417 93.5526 24.2007 95.1027 25.6395C95.3571 25.8764 95.3715 26.273 95.1342 26.5293C95.0107 26.6623 94.8411 26.73 94.6715 26.73C94.5214 26.73 94.3664 26.6744 94.2453 26.5607ZM83.8234 19.4491C81.9948 18.5326 80.0329 17.6839 77.9936 16.9295C77.6666 16.8086 77.5019 16.4458 77.623 16.1218C77.7441 15.7954 78.1075 15.6309 78.4319 15.7519C80.5149 16.5232 82.5179 17.3914 84.3901 18.3272C84.7001 18.4819 84.8261 18.8615 84.6711 19.171C84.5597 19.3911 84.3393 19.5193 84.1067 19.5193C84.0099 19.5168 83.913 19.4951 83.8234 19.4491ZM71.9264 15.0023C69.9331 14.4655 67.8405 13.9915 65.7091 13.595C65.3677 13.532 65.1424 13.2032 65.2053 12.8599C65.2683 12.5189 65.5977 12.2916 65.9392 12.3569C68.1045 12.7607 70.2262 13.2419 72.2534 13.786C72.5901 13.8755 72.7887 14.2213 72.6966 14.5574C72.6216 14.8378 72.3673 15.0216 72.0887 15.0216C72.0355 15.0241 71.9821 15.0167 71.9264 15.0023ZM59.3997 12.6446C57.3096 12.4004 55.1685 12.2215 53.0347 12.1103C52.6859 12.0933 52.4195 11.7959 52.4389 11.4501C52.4559 11.1019 52.7562 10.8359 53.1001 10.8552C55.2606 10.9689 57.4282 11.1503 59.5451 11.3969C59.8915 11.438 60.1385 11.7499 60.0973 12.0933C60.061 12.4125 59.7873 12.6494 59.4725 12.6494C59.4482 12.6471 59.424 12.6471 59.3997 12.6446Z" fill="#21111D"/>
<path d="M43.4565 12.0976C43.4735 12.0976 43.488 12.0976 43.5049 12.0951C43.5171 12.0951 44.665 12.0081 46.6148 11.9815C46.9636 11.9767 47.2397 11.6914 47.2348 11.3431C47.23 10.9998 46.949 10.7241 46.6051 10.7241C46.6026 10.7241 46.5979 10.7241 46.5954 10.7241C44.6046 10.7531 43.4589 10.8377 43.4105 10.8426C43.0642 10.8692 42.805 11.1714 42.8292 11.5172C42.8534 11.8461 43.1295 12.0976 43.4565 12.0976Z" fill="#21111D"/>
<path d="M34.7766 17.8669L31.2186 13.7973C31.2186 13.7973 13.5669 11.8846 13.3199 11.7613C13.0729 11.6356 4 7.08958 4 7.08958L15.4029 6.42944L34.0427 9.10868L34.7766 17.8669Z" fill="#0657A9"/>
<path d="M38.2667 0L4 7.08983L34.0427 9.10893L38.2667 0Z" fill="#0657A9"/>
<path d="M31.2186 13.7974L26.7887 23.4963L4 7.08958L31.2186 13.7974Z" fill="#0657A9"/>
</g>
<defs>
<filter id="filter0_d_22_22" x="0.191617" y="0" width="159.001" height="120.915" filterUnits="userSpaceOnUse" color-interpolation-filters="sRGB">
<feFlood flood-opacity="0" result="BackgroundImageFix"/>
<feColorMatrix in="SourceAlpha" type="matrix" values="0 0 0 0 0 0 0 0 0 0 0 0 0 0 0 0 0 0 127 0" result="hardAlpha"/>
<feOffset dy="3.80838"/>
<feGaussianBlur stdDeviation="1.90419"/>
<feComposite in2="hardAlpha" operator="out"/>
<feColorMatrix type="matrix" values="0 0 0 0 0 0 0 0 0 0 0 0 0 0 0 0 0 0 0.25 0"/>
<feBlend mode="normal" in2="BackgroundImageFix" result="effect1_dropShadow_22_22"/>
<feBlend mode="normal" in="SourceGraphic" in2="effect1_dropShadow_22_22" result="shape"/>
</filter>
</defs>
</svg>
